<svg width="479" height="228" viewBox="0 0 479 228" fill="none" xmlns="http://www.w3.org/2000/svg">
<line x1="244.02" y1="18.0001" x2="331.021" y2="18.8667" stroke="white" stroke-width="4"/>
<path d="M279.6 157.155C275.579 156 272.65 154.584 270.811 152.907C268.988 151.215 268.076 149.131 268.076 146.657C268.076 143.858 269.191 141.547 271.421 139.724C273.667 137.884 276.58 136.965 280.161 136.965C282.603 136.965 284.775 137.437 286.68 138.381C288.6 139.325 290.081 140.627 291.123 142.287C292.181 143.947 292.71 145.762 292.71 147.731H287.998C287.998 145.583 287.314 143.898 285.947 142.678C284.58 141.441 282.651 140.822 280.161 140.822C277.85 140.822 276.043 141.335 274.741 142.36C273.455 143.369 272.812 144.777 272.812 146.584C272.812 148.033 273.423 149.261 274.644 150.271C275.881 151.263 277.972 152.175 280.918 153.005C283.88 153.835 286.191 154.755 287.852 155.764C289.528 156.757 290.765 157.92 291.562 159.255C292.376 160.59 292.783 162.16 292.783 163.967C292.783 166.848 291.66 169.159 289.414 170.9C287.168 172.626 284.165 173.488 280.405 173.488C277.964 173.488 275.685 173.024 273.569 172.097C271.453 171.153 269.818 169.867 268.662 168.239C267.523 166.612 266.953 164.764 266.953 162.697H271.665C271.665 164.846 272.454 166.547 274.033 167.8C275.628 169.037 277.752 169.655 280.405 169.655C282.879 169.655 284.775 169.151 286.094 168.142C287.412 167.132 288.071 165.757 288.071 164.016C288.071 162.274 287.461 160.931 286.24 159.987C285.02 159.027 282.806 158.083 279.6 157.155ZM323.374 141.311H311.948V173H307.285V141.311H295.884V137.453H323.374V141.311ZM353.672 137.453V161.623C353.656 164.976 352.598 167.718 350.498 169.851C348.415 171.983 345.583 173.179 342.002 173.439L340.757 173.488C336.867 173.488 333.766 172.438 331.455 170.339C329.144 168.239 327.972 165.35 327.939 161.672V137.453H332.578V161.525C332.578 164.097 333.286 166.099 334.702 167.531C336.118 168.947 338.136 169.655 340.757 169.655C343.41 169.655 345.436 168.947 346.836 167.531C348.252 166.115 348.96 164.121 348.96 161.55V137.453H353.672ZM361.069 173V137.453H371.104C374.196 137.453 376.93 138.137 379.307 139.504C381.683 140.871 383.514 142.816 384.8 145.339C386.102 147.862 386.761 150.759 386.777 154.03V156.301C386.777 159.654 386.126 162.591 384.824 165.114C383.538 167.637 381.691 169.574 379.282 170.925C376.89 172.276 374.098 172.967 370.908 173H361.069ZM365.757 141.311V169.167H370.688C374.302 169.167 377.109 168.044 379.111 165.798C381.13 163.552 382.139 160.354 382.139 156.203V154.128C382.139 150.091 381.187 146.958 379.282 144.729C377.394 142.482 374.709 141.343 371.226 141.311H365.757ZM398.911 173H394.224V137.453H398.911V173ZM434.849 156.374C434.849 159.857 434.263 162.901 433.091 165.505C431.919 168.093 430.259 170.07 428.11 171.438C425.962 172.805 423.455 173.488 420.591 173.488C417.791 173.488 415.309 172.805 413.145 171.438C410.98 170.054 409.295 168.093 408.091 165.554C406.903 162.998 406.292 160.044 406.26 156.691V154.128C406.26 150.71 406.854 147.691 408.042 145.07C409.23 142.45 410.907 140.448 413.071 139.064C415.252 137.665 417.743 136.965 420.542 136.965C423.39 136.965 425.897 137.657 428.062 139.04C430.243 140.407 431.919 142.401 433.091 145.021C434.263 147.626 434.849 150.661 434.849 154.128V156.374ZM430.186 154.079C430.186 149.864 429.339 146.633 427.646 144.387C425.954 142.124 423.586 140.993 420.542 140.993C417.58 140.993 415.244 142.124 413.535 144.387C411.842 146.633 410.972 149.758 410.923 153.762V156.374C410.923 160.459 411.777 163.674 413.486 166.018C415.212 168.345 417.58 169.509 420.591 169.509C423.618 169.509 425.962 168.41 427.622 166.213C429.282 163.999 430.137 160.834 430.186 156.716V154.079Z" fill="white"/>
<path d="M146.9 47V117H139.6V84.7H95.8V117H88.4V47H95.8V78.2H139.6V47H146.9ZM213.648 98.3H174.648L166.248 117H158.548L190.548 47H197.848L229.848 117H222.048L213.648 98.3ZM210.948 92.3L194.148 54.7L177.348 92.3H210.948ZM261.326 92.8V117H254.026V92.8L226.026 47H233.926L257.926 86.3L281.926 47H289.326L261.326 92.8ZM328.375 117.6C321.442 117.6 315.142 116.067 309.475 113C303.875 109.867 299.475 105.6 296.275 100.2C293.142 94.8 291.575 88.7333 291.575 82C291.575 75.2667 293.142 69.2 296.275 63.8C299.475 58.4 303.875 54.1667 309.475 51.1C315.142 47.9667 321.442 46.4 328.375 46.4C335.308 46.4 341.542 47.9333 347.075 51C352.675 54.0667 357.075 58.3333 360.275 63.8C363.475 69.2 365.075 75.2667 365.075 82C365.075 88.7333 363.475 94.8333 360.275 100.3C357.075 105.7 352.675 109.933 347.075 113C341.542 116.067 335.308 117.6 328.375 117.6ZM328.375 111C333.908 111 338.908 109.767 343.375 107.3C347.842 104.767 351.342 101.3 353.875 96.9C356.408 92.4333 357.675 87.4667 357.675 82C357.675 76.5333 356.408 71.6 353.875 67.2C351.342 62.7333 347.842 59.2667 343.375 56.8C338.908 54.2667 333.908 53 328.375 53C322.842 53 317.808 54.2667 313.275 56.8C308.808 59.2667 305.275 62.7333 302.675 67.2C300.142 71.6 298.875 76.5333 298.875 82C298.875 87.4667 300.142 92.4333 302.675 96.9C305.275 101.3 308.808 104.767 313.275 107.3C317.808 109.767 322.842 111 328.375 111Z" fill="white"/>
<path d="M20.88 33L41.52 31.8C52.4 31.8 59.32 34.44 62.28 39.72C63.48 41.88 64.08 44.52 64.08 47.64C64.08 56.92 60.24 64.28 52.56 69.72C60.72 71.24 66 74.44 68.4 79.32C69.52 81.72 70.08 84.6 70.08 87.96C70.08 96.04 66.68 102.92 59.88 108.6C53.16 114.2 45.2 117 36 117H4.8V113.4H8.88C11.28 113.4 12.8 112.96 13.44 112.08C14.08 111.2 14.4 109.88 14.4 108.12V41.88C14.4 39.96 14.04 38.6 13.32 37.8C12.68 37 11.2 36.6 8.88 36.6H4.8V33H20.88ZM33.84 38.28C30.64 38.28 27.68 38.52 24.96 39V70.44H39.6C44 70.44 47.72 68.84 50.76 65.64C53.88 62.36 55.44 58.84 55.44 55.08C55.44 49.64 53.28 45.48 48.96 42.6C44.64 39.72 39.6 38.28 33.84 38.28ZM36 75.48H24.96V109.56C29.84 111 34.4 111.72 38.64 111.72C45.04 111.72 50.24 110.16 54.24 107.04C58.24 103.84 60.24 99.56 60.24 94.2C60.24 87.08 57.68 82.12 52.56 79.32C48 76.76 42.48 75.48 36 75.48Z" fill="black"/>
</svg>
